<?xml version="1.0" encoding="utf-8"?>
<!-- Generator: Adobe Illustrator 16.0.0, SVG Export Plug-In . SVG Version: 6.00 Build 0)  -->
<!DOCTYPE svg PUBLIC "-//W3C//DTD SVG 1.1//EN" "http://www.w3.org/Graphics/SVG/1.1/DTD/svg11.dtd">
<svg version="1.1" id="Layer_1" xmlns="http://www.w3.org/2000/svg" xmlns:xlink="http://www.w3.org/1999/xlink" x="0px" y="0px"
	 width="164px" height="165px" viewBox="0 0 164 165" enable-background="new 0 0 164 165" xml:space="preserve">
<g>
	<path fill="#FFFFFF" d="M145.816,62.882c-12.743-7.696-31.544-6.022-44.579,3.97c-1.434,1.098-2.869,2.19-4.107,3.136
		c-4.419-2.811-8.51-5.323-12.504-7.979c-4.083-2.715-8.528-5.097-12.016-8.454C60.845,42.234,49.475,30.504,37.867,19.019
		c-3.737-3.697-9.76-3.787-13.072-0.502c-3.532,3.502-3.379,8.843,0.452,12.916c2.054,2.184,4.217,4.266,6.347,6.378
		c7.196,7.135,14.399,14.263,22.049,21.839c-2.323,1.313-3.794,1.845-4.879,2.812c-3.805,3.388-6.436,1.892-9.439-1.413
		C34.4,55.629,29.037,50.605,23.839,45.435c-4.737-4.713-10.283-5.368-14.051-1.696c-3.817,3.72-3.323,9.322,1.34,14.033
		c6.448,6.513,12.995,12.929,19.391,19.491c1.05,1.077,2.347,2.82,2.152,4.034c-0.587,3.638-1.856,7.167-2.97,11.134
		c-4.33-4.277-8.217-8.103-12.089-11.944c-4.937-4.898-10.135-5.241-14.367-0.93c-4.143,4.221-3.855,9.034,0.901,13.999
		c12.098,12.63,24.274,25.187,36.307,37.879c8.966,9.458,18.487,18.054,29.754,24.905c17.65,10.734,34.737,11.17,52.471,0.39
		c20.348-12.368,36.74-27.418,40.488-52.576C165.616,87.708,158.732,70.684,145.816,62.882z M146.928,103.11
		c-3.05,19.259-15.905,30.604-31.354,40.189c-12.721,7.891-24.949,7.885-37.699-0.116c-14.337-8.997-26.686-19.399-30.522-36.888
		c-1.452-6.62-1.004-13.237,1.71-19.55c6.333-14.725,25.427-18.218,39.247-5.227c-2.657,1.834-5.563,3.321-7.797,5.496
		c-4.249,4.134-4.309,9.668-0.608,13.244c3.793,3.666,8.854,3.366,13.219-0.918c5.344-5.246,10.508-10.679,15.93-15.84
		c5.055-4.811,10.813-8.375,18.193-7.758C140.964,76.89,149.219,88.646,146.928,103.11z"/>
	<path fill="#FFFFFF" d="M55.445,21.002c11.319,11.51,22.758,22.902,34.209,34.281c4.319,4.291,9.422,4.538,13.185,0.855
		c3.871-3.789,3.749-8.744-0.522-13.192c-1.688-1.756-3.402-3.484-5.124-5.206l0.168,0.065c-1.952-1.878-3.879-3.78-5.813-5.677
		c-0.636-0.632-1.273-1.264-1.908-1.898c-8.111-8.111-16.205-16.241-24.35-24.319c-0.153-0.152-0.31-0.298-0.468-0.443
		c-0.736-0.732-1.467-1.469-2.205-2.2c-3.737-3.697-9.76-3.787-13.072-0.502c-3.531,3.502-3.379,8.843,0.452,12.916
		C51.689,17.48,53.623,19.253,55.445,21.002z"/>
</g>
</svg>
